<svg width="41" height="41" viewBox="0 0 41 41" fill="none" xmlns="http://www.w3.org/2000/svg">
<rect x="9.99241" y="9.97573" width="21.032" height="21.032" rx="10.25" transform="rotate(0.0457959 9.99241 9.97573)" stroke="#040406" stroke-width="1.5"/>
<path d="M17.8311 17.5369C17.8314 17.0621 17.9582 16.596 18.1985 16.1865C18.4388 15.777 18.7839 15.439 19.1983 15.2072C19.6127 14.9754 20.0813 14.8583 20.556 14.8678C21.0307 14.8773 21.4942 15.0132 21.899 15.2615C22.3037 15.5097 22.6349 15.8613 22.8586 16.2801C23.0822 16.6989 23.1902 17.1698 23.1714 17.6442C23.1526 18.1186 23.0077 18.5794 22.7517 18.9792C22.4956 19.379 22.1376 19.7033 21.7145 19.9188C21.3397 20.1228 21.0281 20.4258 20.8136 20.7946C20.599 21.1635 20.4899 21.5842 20.4979 22.0109L20.4978 22.0365" stroke="#040406" stroke-width="1.5" stroke-miterlimit="10" stroke-linecap="round"/>
<path d="M20.3991 25.1089L20.3983 26.1331" stroke="#040406" stroke-width="1.5" stroke-miterlimit="10" stroke-linecap="round"/>
</svg>
